<svg width="110" height="40" viewBox="0 0 110 40" fill="none" xmlns="http://www.w3.org/2000/svg">
<path d="M104.116 19.0408L109.999 40C108.265 39.6663 106.532 39.2489 104.766 38.874L101.452 27.2915L98.0458 37.9167C96.3739 37.5418 94.7316 37.4156 93.0597 37.1244L99.0369 18.7909L93.617 0H98.6347L101.669 10.499L104.921 0H109.999L104.116 19.0408ZM89.6536 0H85.1013V36.3333C86.5875 36.4583 88.1359 36.5408 89.6536 36.7907V0ZM81.1676 35.9159C77.0185 35.541 72.8683 35.2085 68.6263 35.0823V0H73.2705V29.1661C75.9345 29.2499 78.5975 29.541 81.1676 29.7073V35.9159ZM63.6709 14.2081V20.458H57.3231V34.6662H52.7392V0H65.7459V6.24988H57.3231V14.2081H63.6709ZM44.935 6.24988V34.9998C43.3866 34.9998 41.8076 34.9998 40.2898 35.0823V6.24988H35.4895V0H49.766V6.24988H44.935ZM30.4728 20.7905C28.4293 20.7905 26.0134 20.7905 24.2792 20.9167V30.2084C27.0045 29.9572 29.7297 29.666 32.4856 29.541V35.541L19.634 36.9169V0H32.4856V6.24988H24.2792V14.6655C26.0756 14.6655 28.8315 14.5406 30.4728 14.5406V20.7905ZM4.73807 17.2912V39.1239C3.06614 39.3751 1.57905 39.6663 0 40V0H4.42876L10.4672 22.7088V0H15.1124V37.4156C13.4711 37.7917 11.7992 37.9167 10.0334 38.2491L4.73807 17.2912Z" fill="#E50914"/>
</svg>
